<mxfile host="Electron" modified="2023-10-29T00:53:05.439Z" agent="Mozilla/5.0 (Windows NT 10.0; Win64; x64) AppleWebKit/537.36 (KHTML, like Gecko) draw.io/22.0.3 Chrome/114.0.5735.289 Electron/25.8.4 Safari/537.36" etag="g2lOpBCC_5PwXkD9bJGV" version="22.0.3" type="device">
  <diagram name="Page-1" id="HbJUfuDNp0laYoLnYZLv">
    <mxGraphModel dx="3072" dy="945" grid="0" gridSize="10" guides="1" tooltips="1" connect="1" arrows="1" fold="1" page="1" pageScale="1" pageWidth="1200" pageHeight="1600" math="0" shadow="0">
      <root>
        <mxCell id="0" />
        <mxCell id="1" parent="0" />
        <mxCell id="sDmYKsPdchrpz-m1kF5f-67" style="hachureGap=4;orthogonalLoop=1;jettySize=auto;html=1;entryX=0;entryY=1;entryDx=0;entryDy=0;fontFamily=Architects Daughter;fontSource=https%3A%2F%2Ffonts.googleapis.com%2Fcss%3Ffamily%3DArchitects%2BDaughter;fontSize=16;rounded=0;endArrow=none;endFill=0;" edge="1" parent="1" source="sDmYKsPdchrpz-m1kF5f-3" target="sDmYKsPdchrpz-m1kF5f-33">
          <mxGeometry relative="1" as="geometry" />
        </mxCell>
        <mxCell id="sDmYKsPdchrpz-m1kF5f-68" style="edgeStyle=none;shape=connector;rounded=0;hachureGap=4;orthogonalLoop=1;jettySize=auto;html=1;entryX=0;entryY=0.75;entryDx=0;entryDy=0;labelBackgroundColor=default;strokeColor=default;align=center;verticalAlign=middle;fontFamily=Architects Daughter;fontSource=https%3A%2F%2Ffonts.googleapis.com%2Fcss%3Ffamily%3DArchitects%2BDaughter;fontSize=16;fontColor=default;endArrow=none;endFill=0;" edge="1" parent="1" source="sDmYKsPdchrpz-m1kF5f-3" target="sDmYKsPdchrpz-m1kF5f-43">
          <mxGeometry relative="1" as="geometry" />
        </mxCell>
        <mxCell id="sDmYKsPdchrpz-m1kF5f-3" value="Tópico" style="rounded=1;whiteSpace=wrap;html=1;absoluteArcSize=1;arcSize=14;strokeWidth=2;" vertex="1" parent="1">
          <mxGeometry x="-724" y="564" width="240" height="80" as="geometry" />
        </mxCell>
        <mxCell id="sDmYKsPdchrpz-m1kF5f-76" style="edgeStyle=none;shape=connector;rounded=0;hachureGap=4;orthogonalLoop=1;jettySize=auto;html=1;labelBackgroundColor=default;strokeColor=default;align=center;verticalAlign=middle;fontFamily=Architects Daughter;fontSource=https%3A%2F%2Ffonts.googleapis.com%2Fcss%3Ffamily%3DArchitects%2BDaughter;fontSize=16;fontColor=default;endArrow=none;endFill=0;" edge="1" parent="1" source="sDmYKsPdchrpz-m1kF5f-24" target="sDmYKsPdchrpz-m1kF5f-3">
          <mxGeometry relative="1" as="geometry" />
        </mxCell>
        <mxCell id="sDmYKsPdchrpz-m1kF5f-77" style="edgeStyle=none;shape=connector;rounded=0;hachureGap=4;orthogonalLoop=1;jettySize=auto;html=1;labelBackgroundColor=default;strokeColor=default;align=center;verticalAlign=middle;fontFamily=Architects Daughter;fontSource=https%3A%2F%2Ffonts.googleapis.com%2Fcss%3Ffamily%3DArchitects%2BDaughter;fontSize=16;fontColor=default;endArrow=none;endFill=0;" edge="1" parent="1" source="sDmYKsPdchrpz-m1kF5f-24" target="sDmYKsPdchrpz-m1kF5f-30">
          <mxGeometry relative="1" as="geometry" />
        </mxCell>
        <mxCell id="sDmYKsPdchrpz-m1kF5f-78" style="edgeStyle=none;shape=connector;rounded=0;hachureGap=4;orthogonalLoop=1;jettySize=auto;html=1;labelBackgroundColor=default;strokeColor=default;align=center;verticalAlign=middle;fontFamily=Architects Daughter;fontSource=https%3A%2F%2Ffonts.googleapis.com%2Fcss%3Ffamily%3DArchitects%2BDaughter;fontSize=16;fontColor=default;endArrow=none;endFill=0;" edge="1" parent="1" source="sDmYKsPdchrpz-m1kF5f-24" target="sDmYKsPdchrpz-m1kF5f-31">
          <mxGeometry relative="1" as="geometry" />
        </mxCell>
        <mxCell id="sDmYKsPdchrpz-m1kF5f-24" value="" style="shape=image;verticalLabelPosition=bottom;labelBackgroundColor=default;verticalAlign=top;aspect=fixed;imageAspect=0;image=http://127.0.0.1:8000/static/img/logo.png;" vertex="1" parent="1">
          <mxGeometry x="-864" y="734" width="100" height="100" as="geometry" />
        </mxCell>
        <mxCell id="sDmYKsPdchrpz-m1kF5f-69" style="edgeStyle=none;shape=connector;rounded=0;hachureGap=4;orthogonalLoop=1;jettySize=auto;html=1;entryX=0;entryY=0.75;entryDx=0;entryDy=0;labelBackgroundColor=default;strokeColor=default;align=center;verticalAlign=middle;fontFamily=Architects Daughter;fontSource=https%3A%2F%2Ffonts.googleapis.com%2Fcss%3Ffamily%3DArchitects%2BDaughter;fontSize=16;fontColor=default;endArrow=none;endFill=0;" edge="1" parent="1" source="sDmYKsPdchrpz-m1kF5f-30" target="sDmYKsPdchrpz-m1kF5f-46">
          <mxGeometry relative="1" as="geometry" />
        </mxCell>
        <mxCell id="sDmYKsPdchrpz-m1kF5f-70" style="edgeStyle=none;shape=connector;rounded=0;hachureGap=4;orthogonalLoop=1;jettySize=auto;html=1;labelBackgroundColor=default;strokeColor=default;align=center;verticalAlign=middle;fontFamily=Architects Daughter;fontSource=https%3A%2F%2Ffonts.googleapis.com%2Fcss%3Ffamily%3DArchitects%2BDaughter;fontSize=16;fontColor=default;endArrow=none;endFill=0;" edge="1" parent="1" source="sDmYKsPdchrpz-m1kF5f-30" target="sDmYKsPdchrpz-m1kF5f-47">
          <mxGeometry relative="1" as="geometry" />
        </mxCell>
        <mxCell id="sDmYKsPdchrpz-m1kF5f-71" style="edgeStyle=none;shape=connector;rounded=0;hachureGap=4;orthogonalLoop=1;jettySize=auto;html=1;labelBackgroundColor=default;strokeColor=default;align=center;verticalAlign=middle;fontFamily=Architects Daughter;fontSource=https%3A%2F%2Ffonts.googleapis.com%2Fcss%3Ffamily%3DArchitects%2BDaughter;fontSize=16;fontColor=default;endArrow=none;endFill=0;" edge="1" parent="1" source="sDmYKsPdchrpz-m1kF5f-30" target="sDmYKsPdchrpz-m1kF5f-48">
          <mxGeometry relative="1" as="geometry" />
        </mxCell>
        <mxCell id="sDmYKsPdchrpz-m1kF5f-30" value="Tópico" style="rounded=1;whiteSpace=wrap;html=1;absoluteArcSize=1;arcSize=14;strokeWidth=2;" vertex="1" parent="1">
          <mxGeometry x="-619" y="720" width="240" height="80" as="geometry" />
        </mxCell>
        <mxCell id="sDmYKsPdchrpz-m1kF5f-73" style="edgeStyle=none;shape=connector;rounded=0;hachureGap=4;orthogonalLoop=1;jettySize=auto;html=1;labelBackgroundColor=default;strokeColor=default;align=center;verticalAlign=middle;fontFamily=Architects Daughter;fontSource=https%3A%2F%2Ffonts.googleapis.com%2Fcss%3Ffamily%3DArchitects%2BDaughter;fontSize=16;fontColor=default;endArrow=none;endFill=0;" edge="1" parent="1" source="sDmYKsPdchrpz-m1kF5f-31" target="sDmYKsPdchrpz-m1kF5f-49">
          <mxGeometry relative="1" as="geometry" />
        </mxCell>
        <mxCell id="sDmYKsPdchrpz-m1kF5f-74" style="edgeStyle=none;shape=connector;rounded=0;hachureGap=4;orthogonalLoop=1;jettySize=auto;html=1;labelBackgroundColor=default;strokeColor=default;align=center;verticalAlign=middle;fontFamily=Architects Daughter;fontSource=https%3A%2F%2Ffonts.googleapis.com%2Fcss%3Ffamily%3DArchitects%2BDaughter;fontSize=16;fontColor=default;endArrow=none;endFill=0;" edge="1" parent="1" source="sDmYKsPdchrpz-m1kF5f-31" target="sDmYKsPdchrpz-m1kF5f-50">
          <mxGeometry relative="1" as="geometry" />
        </mxCell>
        <mxCell id="sDmYKsPdchrpz-m1kF5f-75" style="edgeStyle=none;shape=connector;rounded=0;hachureGap=4;orthogonalLoop=1;jettySize=auto;html=1;labelBackgroundColor=default;strokeColor=default;align=center;verticalAlign=middle;fontFamily=Architects Daughter;fontSource=https%3A%2F%2Ffonts.googleapis.com%2Fcss%3Ffamily%3DArchitects%2BDaughter;fontSize=16;fontColor=default;endArrow=none;endFill=0;" edge="1" parent="1" source="sDmYKsPdchrpz-m1kF5f-31" target="sDmYKsPdchrpz-m1kF5f-51">
          <mxGeometry relative="1" as="geometry" />
        </mxCell>
        <mxCell id="sDmYKsPdchrpz-m1kF5f-31" value="Tópico" style="rounded=1;whiteSpace=wrap;html=1;absoluteArcSize=1;arcSize=14;strokeWidth=2;" vertex="1" parent="1">
          <mxGeometry x="-733" y="893" width="240" height="80" as="geometry" />
        </mxCell>
        <mxCell id="sDmYKsPdchrpz-m1kF5f-92" style="edgeStyle=none;shape=connector;rounded=0;hachureGap=4;orthogonalLoop=1;jettySize=auto;html=1;labelBackgroundColor=default;strokeColor=default;align=center;verticalAlign=middle;fontFamily=Architects Daughter;fontSource=https%3A%2F%2Ffonts.googleapis.com%2Fcss%3Ffamily%3DArchitects%2BDaughter;fontSize=16;fontColor=default;endArrow=none;endFill=0;" edge="1" parent="1" source="sDmYKsPdchrpz-m1kF5f-33" target="sDmYKsPdchrpz-m1kF5f-52">
          <mxGeometry relative="1" as="geometry" />
        </mxCell>
        <mxCell id="sDmYKsPdchrpz-m1kF5f-33" value="Thread" style="rounded=1;whiteSpace=wrap;html=1;absoluteArcSize=1;arcSize=14;strokeWidth=2;" vertex="1" parent="1">
          <mxGeometry x="-512" y="460" width="139" height="52" as="geometry" />
        </mxCell>
        <mxCell id="sDmYKsPdchrpz-m1kF5f-90" style="edgeStyle=none;shape=connector;rounded=0;hachureGap=4;orthogonalLoop=1;jettySize=auto;html=1;entryX=0.5;entryY=0;entryDx=0;entryDy=0;labelBackgroundColor=default;strokeColor=default;align=center;verticalAlign=middle;fontFamily=Architects Daughter;fontSource=https%3A%2F%2Ffonts.googleapis.com%2Fcss%3Ffamily%3DArchitects%2BDaughter;fontSize=16;fontColor=default;endArrow=none;endFill=0;" edge="1" parent="1" source="sDmYKsPdchrpz-m1kF5f-43" target="sDmYKsPdchrpz-m1kF5f-56">
          <mxGeometry relative="1" as="geometry" />
        </mxCell>
        <mxCell id="sDmYKsPdchrpz-m1kF5f-91" style="edgeStyle=none;shape=connector;rounded=0;hachureGap=4;orthogonalLoop=1;jettySize=auto;html=1;labelBackgroundColor=default;strokeColor=default;align=center;verticalAlign=middle;fontFamily=Architects Daughter;fontSource=https%3A%2F%2Ffonts.googleapis.com%2Fcss%3Ffamily%3DArchitects%2BDaughter;fontSize=16;fontColor=default;endArrow=none;endFill=0;" edge="1" parent="1" source="sDmYKsPdchrpz-m1kF5f-43" target="sDmYKsPdchrpz-m1kF5f-53">
          <mxGeometry relative="1" as="geometry" />
        </mxCell>
        <mxCell id="sDmYKsPdchrpz-m1kF5f-43" value="Thread" style="rounded=1;whiteSpace=wrap;html=1;absoluteArcSize=1;arcSize=14;strokeWidth=2;" vertex="1" parent="1">
          <mxGeometry x="-354" y="520" width="139" height="52" as="geometry" />
        </mxCell>
        <mxCell id="sDmYKsPdchrpz-m1kF5f-89" style="edgeStyle=none;shape=connector;rounded=0;hachureGap=4;orthogonalLoop=1;jettySize=auto;html=1;labelBackgroundColor=default;strokeColor=default;align=center;verticalAlign=middle;fontFamily=Architects Daughter;fontSource=https%3A%2F%2Ffonts.googleapis.com%2Fcss%3Ffamily%3DArchitects%2BDaughter;fontSize=16;fontColor=default;endArrow=none;endFill=0;" edge="1" parent="1" source="sDmYKsPdchrpz-m1kF5f-46" target="sDmYKsPdchrpz-m1kF5f-57">
          <mxGeometry relative="1" as="geometry" />
        </mxCell>
        <mxCell id="sDmYKsPdchrpz-m1kF5f-46" value="Thread" style="rounded=1;whiteSpace=wrap;html=1;absoluteArcSize=1;arcSize=14;strokeWidth=2;" vertex="1" parent="1">
          <mxGeometry x="-255" y="590" width="139" height="52" as="geometry" />
        </mxCell>
        <mxCell id="sDmYKsPdchrpz-m1kF5f-87" style="edgeStyle=none;shape=connector;rounded=0;hachureGap=4;orthogonalLoop=1;jettySize=auto;html=1;labelBackgroundColor=default;strokeColor=default;align=center;verticalAlign=middle;fontFamily=Architects Daughter;fontSource=https%3A%2F%2Ffonts.googleapis.com%2Fcss%3Ffamily%3DArchitects%2BDaughter;fontSize=16;fontColor=default;endArrow=none;endFill=0;" edge="1" parent="1" source="sDmYKsPdchrpz-m1kF5f-47" target="sDmYKsPdchrpz-m1kF5f-58">
          <mxGeometry relative="1" as="geometry" />
        </mxCell>
        <mxCell id="sDmYKsPdchrpz-m1kF5f-88" style="edgeStyle=none;shape=connector;rounded=0;hachureGap=4;orthogonalLoop=1;jettySize=auto;html=1;entryX=0.25;entryY=1;entryDx=0;entryDy=0;labelBackgroundColor=default;strokeColor=default;align=center;verticalAlign=middle;fontFamily=Architects Daughter;fontSource=https%3A%2F%2Ffonts.googleapis.com%2Fcss%3Ffamily%3DArchitects%2BDaughter;fontSize=16;fontColor=default;endArrow=none;endFill=0;" edge="1" parent="1" source="sDmYKsPdchrpz-m1kF5f-47" target="sDmYKsPdchrpz-m1kF5f-59">
          <mxGeometry relative="1" as="geometry" />
        </mxCell>
        <mxCell id="sDmYKsPdchrpz-m1kF5f-47" value="Thread" style="rounded=1;whiteSpace=wrap;html=1;absoluteArcSize=1;arcSize=14;strokeWidth=2;" vertex="1" parent="1">
          <mxGeometry x="-170" y="679" width="139" height="52" as="geometry" />
        </mxCell>
        <mxCell id="sDmYKsPdchrpz-m1kF5f-86" style="edgeStyle=none;shape=connector;rounded=0;hachureGap=4;orthogonalLoop=1;jettySize=auto;html=1;labelBackgroundColor=default;strokeColor=default;align=center;verticalAlign=middle;fontFamily=Architects Daughter;fontSource=https%3A%2F%2Ffonts.googleapis.com%2Fcss%3Ffamily%3DArchitects%2BDaughter;fontSize=16;fontColor=default;endArrow=none;endFill=0;" edge="1" parent="1" source="sDmYKsPdchrpz-m1kF5f-48" target="sDmYKsPdchrpz-m1kF5f-84">
          <mxGeometry relative="1" as="geometry" />
        </mxCell>
        <mxCell id="sDmYKsPdchrpz-m1kF5f-48" value="Thread" style="rounded=1;whiteSpace=wrap;html=1;absoluteArcSize=1;arcSize=14;strokeWidth=2;" vertex="1" parent="1">
          <mxGeometry x="-113" y="753" width="139" height="52" as="geometry" />
        </mxCell>
        <mxCell id="sDmYKsPdchrpz-m1kF5f-82" style="edgeStyle=none;shape=connector;rounded=0;hachureGap=4;orthogonalLoop=1;jettySize=auto;html=1;labelBackgroundColor=default;strokeColor=default;align=center;verticalAlign=middle;fontFamily=Architects Daughter;fontSource=https%3A%2F%2Ffonts.googleapis.com%2Fcss%3Ffamily%3DArchitects%2BDaughter;fontSize=16;fontColor=default;endArrow=none;endFill=0;" edge="1" parent="1" source="sDmYKsPdchrpz-m1kF5f-49" target="sDmYKsPdchrpz-m1kF5f-63">
          <mxGeometry relative="1" as="geometry" />
        </mxCell>
        <mxCell id="sDmYKsPdchrpz-m1kF5f-83" style="edgeStyle=none;shape=connector;rounded=0;hachureGap=4;orthogonalLoop=1;jettySize=auto;html=1;labelBackgroundColor=default;strokeColor=default;align=center;verticalAlign=middle;fontFamily=Architects Daughter;fontSource=https%3A%2F%2Ffonts.googleapis.com%2Fcss%3Ffamily%3DArchitects%2BDaughter;fontSize=16;fontColor=default;endArrow=none;endFill=0;" edge="1" parent="1" source="sDmYKsPdchrpz-m1kF5f-49" target="sDmYKsPdchrpz-m1kF5f-62">
          <mxGeometry relative="1" as="geometry" />
        </mxCell>
        <mxCell id="sDmYKsPdchrpz-m1kF5f-85" style="edgeStyle=none;shape=connector;rounded=0;hachureGap=4;orthogonalLoop=1;jettySize=auto;html=1;entryX=0.25;entryY=1;entryDx=0;entryDy=0;labelBackgroundColor=default;strokeColor=default;align=center;verticalAlign=middle;fontFamily=Architects Daughter;fontSource=https%3A%2F%2Ffonts.googleapis.com%2Fcss%3Ffamily%3DArchitects%2BDaughter;fontSize=16;fontColor=default;endArrow=none;endFill=0;" edge="1" parent="1" source="sDmYKsPdchrpz-m1kF5f-49" target="sDmYKsPdchrpz-m1kF5f-61">
          <mxGeometry relative="1" as="geometry" />
        </mxCell>
        <mxCell id="sDmYKsPdchrpz-m1kF5f-49" value="Thread" style="rounded=1;whiteSpace=wrap;html=1;absoluteArcSize=1;arcSize=14;strokeWidth=2;" vertex="1" parent="1">
          <mxGeometry x="-182" y="841" width="139" height="52" as="geometry" />
        </mxCell>
        <mxCell id="sDmYKsPdchrpz-m1kF5f-81" style="edgeStyle=none;shape=connector;rounded=0;hachureGap=4;orthogonalLoop=1;jettySize=auto;html=1;labelBackgroundColor=default;strokeColor=default;align=center;verticalAlign=middle;fontFamily=Architects Daughter;fontSource=https%3A%2F%2Ffonts.googleapis.com%2Fcss%3Ffamily%3DArchitects%2BDaughter;fontSize=16;fontColor=default;endArrow=none;endFill=0;" edge="1" parent="1" source="sDmYKsPdchrpz-m1kF5f-50" target="sDmYKsPdchrpz-m1kF5f-64">
          <mxGeometry relative="1" as="geometry" />
        </mxCell>
        <mxCell id="sDmYKsPdchrpz-m1kF5f-50" value="Thread" style="rounded=1;whiteSpace=wrap;html=1;absoluteArcSize=1;arcSize=14;strokeWidth=2;" vertex="1" parent="1">
          <mxGeometry x="-313" y="940" width="139" height="52" as="geometry" />
        </mxCell>
        <mxCell id="sDmYKsPdchrpz-m1kF5f-79" style="edgeStyle=none;shape=connector;rounded=0;hachureGap=4;orthogonalLoop=1;jettySize=auto;html=1;labelBackgroundColor=default;strokeColor=default;align=center;verticalAlign=middle;fontFamily=Architects Daughter;fontSource=https%3A%2F%2Ffonts.googleapis.com%2Fcss%3Ffamily%3DArchitects%2BDaughter;fontSize=16;fontColor=default;endArrow=none;endFill=0;" edge="1" parent="1" source="sDmYKsPdchrpz-m1kF5f-51" target="sDmYKsPdchrpz-m1kF5f-65">
          <mxGeometry relative="1" as="geometry" />
        </mxCell>
        <mxCell id="sDmYKsPdchrpz-m1kF5f-80" style="edgeStyle=none;shape=connector;rounded=0;hachureGap=4;orthogonalLoop=1;jettySize=auto;html=1;labelBackgroundColor=default;strokeColor=default;align=center;verticalAlign=middle;fontFamily=Architects Daughter;fontSource=https%3A%2F%2Ffonts.googleapis.com%2Fcss%3Ffamily%3DArchitects%2BDaughter;fontSize=16;fontColor=default;endArrow=none;endFill=0;" edge="1" parent="1" source="sDmYKsPdchrpz-m1kF5f-51" target="sDmYKsPdchrpz-m1kF5f-60">
          <mxGeometry relative="1" as="geometry" />
        </mxCell>
        <mxCell id="sDmYKsPdchrpz-m1kF5f-51" value="Thread" style="rounded=1;whiteSpace=wrap;html=1;absoluteArcSize=1;arcSize=14;strokeWidth=2;" vertex="1" parent="1">
          <mxGeometry x="-463" y="1040" width="139" height="52" as="geometry" />
        </mxCell>
        <mxCell id="sDmYKsPdchrpz-m1kF5f-52" value="Post" style="rounded=1;whiteSpace=wrap;html=1;absoluteArcSize=1;arcSize=14;strokeWidth=2;" vertex="1" parent="1">
          <mxGeometry x="-330" y="327" width="71" height="39" as="geometry" />
        </mxCell>
        <mxCell id="sDmYKsPdchrpz-m1kF5f-53" value="Post" style="rounded=1;whiteSpace=wrap;html=1;absoluteArcSize=1;arcSize=14;strokeWidth=2;" vertex="1" parent="1">
          <mxGeometry x="-215" y="368" width="71" height="39" as="geometry" />
        </mxCell>
        <mxCell id="sDmYKsPdchrpz-m1kF5f-56" value="Post" style="rounded=1;whiteSpace=wrap;html=1;absoluteArcSize=1;arcSize=14;strokeWidth=2;" vertex="1" parent="1">
          <mxGeometry x="-128" y="418" width="71" height="39" as="geometry" />
        </mxCell>
        <mxCell id="sDmYKsPdchrpz-m1kF5f-57" value="Post" style="rounded=1;whiteSpace=wrap;html=1;absoluteArcSize=1;arcSize=14;strokeWidth=2;" vertex="1" parent="1">
          <mxGeometry x="-77" y="495" width="71" height="39" as="geometry" />
        </mxCell>
        <mxCell id="sDmYKsPdchrpz-m1kF5f-58" value="Post" style="rounded=1;whiteSpace=wrap;html=1;absoluteArcSize=1;arcSize=14;strokeWidth=2;" vertex="1" parent="1">
          <mxGeometry x="60" y="618" width="71" height="39" as="geometry" />
        </mxCell>
        <mxCell id="sDmYKsPdchrpz-m1kF5f-59" value="Post" style="rounded=1;whiteSpace=wrap;html=1;absoluteArcSize=1;arcSize=14;strokeWidth=2;" vertex="1" parent="1">
          <mxGeometry x="12" y="547" width="71" height="39" as="geometry" />
        </mxCell>
        <mxCell id="sDmYKsPdchrpz-m1kF5f-60" value="Post" style="rounded=1;whiteSpace=wrap;html=1;absoluteArcSize=1;arcSize=14;strokeWidth=2;" vertex="1" parent="1">
          <mxGeometry x="-164" y="1077" width="71" height="39" as="geometry" />
        </mxCell>
        <mxCell id="sDmYKsPdchrpz-m1kF5f-61" value="Post" style="rounded=1;whiteSpace=wrap;html=1;absoluteArcSize=1;arcSize=14;strokeWidth=2;" vertex="1" parent="1">
          <mxGeometry x="74" y="781" width="71" height="39" as="geometry" />
        </mxCell>
        <mxCell id="sDmYKsPdchrpz-m1kF5f-62" value="Post" style="rounded=1;whiteSpace=wrap;html=1;absoluteArcSize=1;arcSize=14;strokeWidth=2;" vertex="1" parent="1">
          <mxGeometry x="40" y="851" width="71" height="39" as="geometry" />
        </mxCell>
        <mxCell id="sDmYKsPdchrpz-m1kF5f-63" value="Post" style="rounded=1;whiteSpace=wrap;html=1;absoluteArcSize=1;arcSize=14;strokeWidth=2;" vertex="1" parent="1">
          <mxGeometry x="-28" y="935" width="71" height="39" as="geometry" />
        </mxCell>
        <mxCell id="sDmYKsPdchrpz-m1kF5f-64" value="Post" style="rounded=1;whiteSpace=wrap;html=1;absoluteArcSize=1;arcSize=14;strokeWidth=2;" vertex="1" parent="1">
          <mxGeometry x="-108" y="998" width="71" height="39" as="geometry" />
        </mxCell>
        <mxCell id="sDmYKsPdchrpz-m1kF5f-65" value="Post" style="rounded=1;whiteSpace=wrap;html=1;absoluteArcSize=1;arcSize=14;strokeWidth=2;" vertex="1" parent="1">
          <mxGeometry x="-256" y="1142" width="71" height="39" as="geometry" />
        </mxCell>
        <mxCell id="sDmYKsPdchrpz-m1kF5f-84" value="Post" style="rounded=1;whiteSpace=wrap;html=1;absoluteArcSize=1;arcSize=14;strokeWidth=2;" vertex="1" parent="1">
          <mxGeometry x="114" y="701" width="71" height="39" as="geometry" />
        </mxCell>
      </root>
    </mxGraphModel>
  </diagram>
</mxfile>
